<svg xmlns="http://www.w3.org/2000/svg" viewBox="0 0 1200 630" role="img" aria-labelledby="title desc">
  <title id="title">Starter content cover</title>
  <desc id="desc">Abstract illustration used to verify external public asset loading.</desc>
  <defs>
    <linearGradient id="bg" x1="0" x2="1" y1="0" y2="1">
      <stop offset="0%" stop-color="#0f172a" />
      <stop offset="100%" stop-color="#1d4ed8" />
    </linearGradient>
  </defs>
  <rect width="1200" height="630" fill="url(#bg)" />
  <circle cx="940" cy="160" r="120" fill="#93c5fd" opacity="0.28" />
  <circle cx="180" cy="500" r="170" fill="#38bdf8" opacity="0.25" />
  <rect x="120" y="120" width="420" height="390" rx="32" fill="#f8fafc" opacity="0.12" />
  <path d="M180 230h285c55 0 95 31 95 86 0 41-19 67-57 79 49 11 75 42 75 91 0 76-52 114-154 114H180V230zm102 74v75h138c23 0 37-14 37-37 0-25-14-38-37-38H282zm0 143v79h152c28 0 44-15 44-39 0-25-16-40-44-40H282z" fill="#f8fafc" />
  <text x="640" y="290" fill="#f8fafc" font-family="Georgia, serif" font-size="72" font-weight="700">Starter Content</text>
  <text x="640" y="360" fill="#dbeafe" font-family="Arial, sans-serif" font-size="32">External uploads stay outside the engine repo</text>
</svg>